<?xml version="1.0" standalone="no"?>
<!DOCTYPE svg PUBLIC "-//W3C//DTD SVG 20010904//EN" "http://www.w3.org/TR/2001/REC-SVG-20010904/DTD/svg10.dtd">
<svg version="1.0" xmlns="http://www.w3.org/2000/svg"
  width="700pt" height="700pt" viewBox="0 0 700 700"
  preserveAspectRatio="xMidYMid meet">
  <g transform="translate(0.000000,700.000000) scale(0.100000,-0.100000)" fill="#000000" stroke="none">
    <path d="M1750 5250 l0 -1750 1750 0 1750 0 0 1750 0 1750 -1750 0 -1750 0 0
    -1750z m3150 0 l0 -1400 -1400 0 -1400 0 0 1400 0 1400 1400 0 1400 0 0
    -1400z"/>
    <path d="M2100 5600 l0 -200 1400 0 1400 0 0 200 0 200 -1400 0 -1400 0 0
    -200z"/>
    <path d="M2100 4800 l0 -200 1400 0 1400 0 0 200 0 200 -1400 0 -1400 0 0
    -200z"/>
    <path d="M2100 4000 l0 -200 800 0 800 0 0 200 0 200 -800 0 -800 0 0 -200z"/>
  </g>
</svg> 