<?xml version="1.0" encoding="UTF-8"?>
<svg width="140" height="32" viewBox="0 0 140 32" xmlns="http://www.w3.org/2000/svg">
  <path d="M15.728 22.048C14.176 22.048 12.816 21.744 11.648 21.136C10.48 20.528 9.568 19.664 8.912 18.544C8.256 17.424 7.928 16.128 7.928 14.656C7.928 13.184 8.256 11.888 8.912 10.768C9.568 9.648 10.48 8.784 11.648 8.176C12.816 7.568 14.176 7.264 15.728 7.264C17.024 7.264 18.176 7.504 19.184 7.984C20.192 8.464 21.024 9.152 21.68 10.048L19.52 11.968C19.072 11.392 18.56 10.96 17.984 10.672C17.408 10.384 16.768 10.24 16.064 10.24C15.136 10.24 14.32 10.448 13.616 10.864C12.912 11.28 12.368 11.856 11.984 12.592C11.6 13.328 11.408 13.936 11.408 15.04C11.408 16.144 11.6 17.072 11.984 17.808C12.368 18.544 12.912 19.12 13.616 19.536C14.32 19.952 15.136 20.16 16.064 20.16C16.768 20.16 17.408 20.016 17.984 19.728C18.56 19.44 19.072 19.008 19.52 18.432L21.68 20.352C21.024 21.248 20.192 21.936 19.184 22.416C18.176 22.896 17.024 23.136 15.728 22.048Z" fill="#2563EB"/>
  <path d="M31.8547 22.048C30.3027 22.048 28.9427 21.744 27.7747 21.136C26.6067 20.528 25.6947 19.664 25.0387 18.544C24.3827 17.424 24.0547 16.128 24.0547 14.656C24.0547 13.184 24.3827 11.888 25.0387 10.768C25.6947 9.648 26.6067 8.784 27.7747 8.176C28.9427 7.568 30.3027 7.264 31.8547 7.264C33.4067 7.264 34.7667 7.568 35.9347 8.176C37.1027 8.784 38.0147 9.648 38.6707 10.768C39.3267 11.888 39.6547 13.184 39.6547 14.656C39.6547 16.128 39.3267 17.424 38.6707 18.544C38.0147 19.664 37.1027 20.528 35.9347 21.136C34.7667 21.744 33.4067 22.048 31.8547 22.048ZM31.8547 19.072C32.8307 19.072 33.7107 18.832 34.4947 18.352C35.2787 17.872 35.8867 17.216 36.3187 16.384C36.7507 15.552 36.9667 14.576 36.9667 13.456C36.9667 12.336 36.7507 11.36 36.3187 10.528C35.8867 9.696 35.2787 9.04 34.4947 8.56C33.7107 8.08 32.8307 7.84 31.8547 7.84C30.8787 7.84 29.9987 8.08 29.2147 8.56C28.4307 9.04 27.8227 9.696 27.3907 10.528C26.9587 11.36 26.7427 12.336 26.7427 13.456C26.7427 14.576 26.9587 15.552 27.3907 16.384C27.8227 17.216 28.4307 17.872 29.2147 18.352C29.9987 18.832 30.8787 19.072 31.8547 19.072Z" fill="#2563EB"/>
  <path d="M49.6813 22.048C48.1293 22.048 46.7693 21.744 45.6013 21.136C44.4333 20.528 43.5213 19.664 42.8653 18.544C42.2093 17.424 41.8813 16.128 41.8813 14.656C41.8813 13.184 42.2093 11.888 42.8653 10.768C43.5213 9.648 44.4333 8.784 45.6013 8.176C46.7693 7.568 48.1293 7.264 49.6813 7.264C51.2333 7.264 52.5933 7.568 53.7613 8.176C54.9293 8.784 55.8413 9.648 56.4973 10.768C57.1533 11.888 57.4813 13.184 57.4813 14.656C57.4813 16.128 57.1533 17.424 56.4973 18.544C55.8413 19.664 54.9293 20.528 53.7613 21.136C52.5933 21.744 51.2333 22.048 49.6813 22.048ZM49.6813 19.072C50.6573 19.072 51.5373 18.832 52.3213 18.352C53.1053 17.872 53.7133 17.216 54.1453 16.384C54.5773 15.552 54.7933 14.576 54.7933 13.456C54.7933 12.336 54.5773 11.36 54.1453 10.528C53.7133 9.696 53.1053 9.04 52.3213 8.56C51.5373 8.08 50.6573 7.84 49.6813 7.84C48.7053 7.84 47.8253 8.08 47.0413 8.56C46.2573 9.04 45.6493 9.696 45.2173 10.528C44.7853 11.36 44.5693 12.336 44.5693 13.456C44.5693 14.576 44.7853 15.552 45.2173 16.384C45.6493 17.216 46.2573 17.872 47.0413 18.352C47.8253 18.832 48.7053 19.072 49.6813 19.072Z" fill="#2563EB"/>
  <path d="M67.508 22.048V7.456H70.196V22.048H67.508ZM64.052 10.048V7.456H70.196V10.048H64.052Z" fill="#2563EB"/>
  <path d="M80.9359 22.048L75.5759 7.456H78.4559L82.6959 19.648L86.9359 7.456H89.8159L84.4559 22.048H80.9359Z" fill="#2563EB"/>
  <circle cx="93" cy="21" r="2" fill="#2563EB"/>
  <path d="M103.384 22.048C102.408 22.048 101.536 21.856 100.768 21.472C100 21.088 99.4 20.544 98.968 19.84C98.536 19.136 98.32 18.32 98.32 17.392C98.32 16.464 98.536 15.648 98.968 14.944C99.4 14.24 100 13.696 100.768 13.312C101.536 12.928 102.408 12.736 103.384 12.736C104.36 12.736 105.232 12.928 106 13.312C106.768 13.696 107.368 14.24 107.8 14.944C108.232 15.648 108.448 16.464 108.448 17.392C108.448 18.32 108.232 19.136 107.8 19.84C107.368 20.544 106.768 21.088 106 21.472C105.232 21.856 104.36 22.048 103.384 22.048ZM103.384 19.744C104.168 19.744 104.824 19.504 105.352 19.024C105.88 18.544 106.144 17.904 106.144 17.104C106.144 16.304 105.88 15.664 105.352 15.184C104.824 14.704 104.168 14.464 103.384 14.464C102.6 14.464 101.944 14.704 101.416 15.184C100.888 15.664 100.624 16.304 100.624 17.104C100.624 17.904 100.888 18.544 101.416 19.024C101.944 19.504 102.6 19.744 103.384 19.744Z" fill="#2563EB"/>
  <path d="M111.141 22.048V12.928H113.829V14.752C114.181 14.112 114.661 13.616 115.269 13.264C115.877 12.912 116.549 12.736 117.285 12.736V15.52H116.549C115.669 15.52 114.981 15.76 114.485 16.24C113.989 16.72 113.741 17.488 113.741 18.544V22.048H111.141Z" fill="#2563EB"/>
</svg>
